<?xml version="1.0" encoding="utf-8"?>
<!-- Generator: Adobe Illustrator 17.1.0, SVG Export Plug-In . SVG Version: 6.00 Build 0)  -->
<!DOCTYPE svg PUBLIC "-//W3C//DTD SVG 1.1//EN" "http://www.w3.org/Graphics/SVG/1.1/DTD/svg11.dtd">
<svg version="1.1" id="Capa_1" xmlns="http://www.w3.org/2000/svg" xmlns:xlink="http://www.w3.org/1999/xlink" x="0px" y="0px"
	 viewBox="0 0 60 60" enable-background="new 0 0 60 60" xml:space="preserve">
<g>
	<g>
		<linearGradient id="SVGID_1_" gradientUnits="userSpaceOnUse" x1="30.125" y1="-1.043567e-006" x2="30.125" y2="60.25">
			<stop  offset="0" style="stop-color:#FAFFFF"/>
			<stop  offset="1" style="stop-color:#240205"/>
		</linearGradient>
		<path fill="url(#SVGID_1_)" d="M60,30.1c0,16.6-13.4,30.1-29.9,30.1c-16.5,0-29.9-13.5-29.9-30.1C0.3,13.5,13.6,0,30.1,0
			C46.6,0,60,13.5,60,30.1z"/>
		<linearGradient id="SVGID_2_" gradientUnits="userSpaceOnUse" x1="15.326" y1="4.4925" x2="44.924" y2="55.7576">
			<stop  offset="0" style="stop-color:#EAE6E5"/>
			<stop  offset="8.863640e-002" style="stop-color:#D9DADA"/>
			<stop  offset="0.1421" style="stop-color:#FAFAFA"/>
			<stop  offset="0.1535" style="stop-color:#EEEFEF"/>
			<stop  offset="0.1885" style="stop-color:#D0D1D3"/>
			<stop  offset="0.2254" style="stop-color:#B8B9BC"/>
			<stop  offset="0.2643" style="stop-color:#A7A9AC"/>
			<stop  offset="0.3069" style="stop-color:#9D9FA3"/>
			<stop  offset="0.36" style="stop-color:#9A9CA0"/>
			<stop  offset="0.42" style="stop-color:#D1D3D4"/>
			<stop  offset="0.6303" style="stop-color:#595B5D"/>
			<stop  offset="0.6955" style="stop-color:#5B5D5F"/>
			<stop  offset="0.7189" style="stop-color:#626466"/>
			<stop  offset="0.7341" style="stop-color:#6C6E70"/>
			<stop  offset="0.7468" style="stop-color:#67696B"/>
			<stop  offset="0.7619" style="stop-color:#5A5B5D"/>
			<stop  offset="0.7781" style="stop-color:#434445"/>
			<stop  offset="0.7951" style="stop-color:#232424"/>
			<stop  offset="0.8" style="stop-color:#191919"/>
			<stop  offset="0.8011" style="stop-color:#202020"/>
			<stop  offset="0.8066" style="stop-color:#3E3F40"/>
			<stop  offset="0.8125" style="stop-color:#58595B"/>
			<stop  offset="0.819" style="stop-color:#6B6C6F"/>
			<stop  offset="0.8263" style="stop-color:#797A7D"/>
			<stop  offset="0.8352" style="stop-color:#818385"/>
			<stop  offset="0.85" style="stop-color:#838588"/>
			<stop  offset="0.92" style="stop-color:#F3F3F3"/>
			<stop  offset="1" style="stop-color:#C9CBCD"/>
		</linearGradient>
		<ellipse fill="url(#SVGID_2_)" cx="30.1" cy="30.1" rx="29.4" ry="29.7"/>
		<g>
			<linearGradient id="SVGID_3_" gradientUnits="userSpaceOnUse" x1="30.125" y1="4.2363" x2="30.125" y2="56.0137">
				<stop  offset="0" style="stop-color:#AEB4B7"/>
				<stop  offset="1" style="stop-color:#FAFFFF"/>
			</linearGradient>
			<ellipse fill="url(#SVGID_3_)" cx="30.1" cy="30.1" rx="25.7" ry="25.9"/>
			<linearGradient id="SVGID_4_" gradientUnits="userSpaceOnUse" x1="30.1245" y1="6.1191" x2="30.1245" y2="54.1309">
				<stop  offset="0" style="stop-color:#240205"/>
				<stop  offset="0.5901" style="stop-color:#250408"/>
				<stop  offset="0.9446" style="stop-color:#270C10"/>
				<stop  offset="1" style="stop-color:#280E12"/>
			</linearGradient>
			<path fill="url(#SVGID_4_)" d="M53.9,30.1c0,13.3-10.7,24-23.8,24c-13.1,0-23.8-10.7-23.8-24c0-13.3,10.7-24,23.8-24
				C43.3,6.1,53.9,16.9,53.9,30.1z"/>
		</g>
	</g>
	<g>
		<g>
			<ellipse fill="#181817" cx="30.1" cy="30.7" rx="23.3" ry="23.5"/>
			<g>
				
					<radialGradient id="SVGID_5_" cx="34.3929" cy="31.3681" r="11.2565" gradientTransform="matrix(1.9708 0 0 1.8958 -37.6571 -27.7881)" gradientUnits="userSpaceOnUse">
					<stop  offset="0.3" style="stop-color:#B9BBBE"/>
					<stop  offset="0.7" style="stop-color:#787A7D"/>
					<stop  offset="1" style="stop-color:#57595A"/>
				</radialGradient>
				<path fill="url(#SVGID_5_)" d="M52.1,31.7c0,11.9-9.8,21.6-21.9,21.6C18,53.3,8.2,43.6,8.2,31.7c0-11.9,9.8-21.6,21.9-21.6
					C42.2,10.1,52.1,19.8,52.1,31.7z"/>
				<g>
					<linearGradient id="SVGID_6_" gradientUnits="userSpaceOnUse" x1="30.1446" y1="37.3198" x2="30.1446" y2="10.4419">
						<stop  offset="0" style="stop-color:#DBDEDF;stop-opacity:0.8"/>
						<stop  offset="0.3585" style="stop-color:#E4E6E4;stop-opacity:0.8717"/>
						<stop  offset="0.9415" style="stop-color:#FCFBF1;stop-opacity:0.9883"/>
						<stop  offset="1" style="stop-color:#FFFDF3"/>
					</linearGradient>
					<ellipse fill="url(#SVGID_6_)" cx="30.1" cy="23.9" rx="15.5" ry="13.4"/>
					<ellipse fill="#FDFEF7" cx="40" cy="28.9" rx="3.7" ry="3.9"/>
				</g>
			</g>
		</g>
		<g>
			
				<linearGradient id="SVGID_7_" gradientUnits="userSpaceOnUse" x1="48.0279" y1="46.1859" x2="53.4787" y2="46.1859" gradientTransform="matrix(0.9975 7.080000e-002 -7.080000e-002 0.9975 1.764 -11.1865)">
				<stop  offset="0" style="stop-color:#B8BABC"/>
				<stop  offset="1" style="stop-color:#959496"/>
			</linearGradient>
			<path fill="url(#SVGID_7_)" d="M48.3,43c2.5-3.1,3.9-8.9,3.9-8.9s-1,2.8-3.6,6.1c-0.8,0.9-1.6,1.7-2.4,2.4L48.3,43z"/>
			
				<linearGradient id="SVGID_8_" gradientUnits="userSpaceOnUse" x1="41.6277" y1="57.861" x2="45.6162" y2="49.6618" gradientTransform="matrix(0.9975 7.080000e-002 -7.080000e-002 0.9975 1.764 -11.1865)">
				<stop  offset="0.3" style="stop-color:#B4B6B9"/>
				<stop  offset="0.3303" style="stop-color:#BBBDC0"/>
				<stop  offset="0.4455" style="stop-color:#CFD1D3"/>
				<stop  offset="0.5766" style="stop-color:#DDDFE1"/>
				<stop  offset="0.7356" style="stop-color:#E5E7EA"/>
				<stop  offset="1" style="stop-color:#E8EAEC"/>
			</linearGradient>
			<path fill="url(#SVGID_8_)" d="M45.3,43.2c-4.3,3-8.9,3.1-9.5,3.5c-1.6,1.2,4.6,2.2,4.6,2.2s3.2-1.1,7.2-5.1L45.3,43.2z"/>
			<linearGradient id="SVGID_9_" gradientUnits="userSpaceOnUse" x1="8.1273" y1="23.2393" x2="15.5749" y2="23.2393">
				<stop  offset="0" style="stop-color:#E4E7E7"/>
				<stop  offset="0.3841" style="stop-color:#B4B6B6"/>
				<stop  offset="0.3993" style="stop-color:#B8BABA"/>
				<stop  offset="0.5027" style="stop-color:#CBCECE"/>
				<stop  offset="0.6203" style="stop-color:#D9DCDC"/>
				<stop  offset="0.7629" style="stop-color:#E2E4E4"/>
				<stop  offset="1" style="stop-color:#E4E7E7"/>
			</linearGradient>
			<path fill="url(#SVGID_9_)" d="M10.9,29.3l-2.8,1.9c0,0,0.9-7,1.8-9c1.7-3.6,5.6-6.9,5.6-6.9s-3.7,3.9-4.6,8.8
				C10.7,25.4,10.9,29.3,10.9,29.3z"/>
			<linearGradient id="SVGID_10_" gradientUnits="userSpaceOnUse" x1="7.943" y1="46.0205" x2="52.2906" y2="46.0205">
				<stop  offset="0" style="stop-color:#D0D0D2"/>
				<stop  offset="0.3841" style="stop-color:#C6C9CA"/>
				<stop  offset="1" style="stop-color:#B0B2B4"/>
			</linearGradient>
			<path fill="url(#SVGID_10_)" d="M30.1,52.4C13.5,52.5,7.9,38.1,7.9,38.1S12.3,54,30.1,54c17.1,0,22.1-15.8,22.1-15.8
				S45.6,52.4,30.1,52.4z"/>
		</g>
	</g>
</g>
</svg>
