<?xml version="1.0" encoding="utf-8"?>
<!-- Generator: Adobe Illustrator 17.1.0, SVG Export Plug-In . SVG Version: 6.00 Build 0)  -->
<!DOCTYPE svg PUBLIC "-//W3C//DTD SVG 1.1//EN" "http://www.w3.org/Graphics/SVG/1.1/DTD/svg11.dtd">
<svg version="1.1" id="Capa_1" xmlns="http://www.w3.org/2000/svg" xmlns:xlink="http://www.w3.org/1999/xlink" x="0px" y="0px"
	 viewBox="0 0 60 60" enable-background="new 0 0 60 60" xml:space="preserve">
<g>
	<g>
		<linearGradient id="SVGID_1_" gradientUnits="userSpaceOnUse" x1="30.1058" y1="0.1848" x2="30.1058" y2="59.7634">
			<stop  offset="0" style="stop-color:#FAFFFF"/>
			<stop  offset="1" style="stop-color:#240205"/>
		</linearGradient>
		<path fill="url(#SVGID_1_)" d="M60,30c0,16.5-13.4,29.8-29.9,29.8C13.6,59.8,0.3,46.4,0.3,30c0-16.4,13.4-29.8,29.9-29.8
			C46.6,0.2,60,13.5,60,30z"/>
		<linearGradient id="SVGID_2_" gradientUnits="userSpaceOnUse" x1="15.4334" y1="4.5606" x2="44.7782" y2="55.3873">
			<stop  offset="0" style="stop-color:#EAE6E5"/>
			<stop  offset="8.863640e-002" style="stop-color:#D9DADA"/>
			<stop  offset="0.1421" style="stop-color:#FAFAFA"/>
			<stop  offset="0.1535" style="stop-color:#EEEFEF"/>
			<stop  offset="0.1885" style="stop-color:#D0D1D3"/>
			<stop  offset="0.2254" style="stop-color:#B8B9BC"/>
			<stop  offset="0.2643" style="stop-color:#A7A9AC"/>
			<stop  offset="0.3069" style="stop-color:#9D9FA3"/>
			<stop  offset="0.36" style="stop-color:#9A9CA0"/>
			<stop  offset="0.42" style="stop-color:#D1D3D4"/>
			<stop  offset="0.6303" style="stop-color:#595B5D"/>
			<stop  offset="0.6955" style="stop-color:#5B5D5F"/>
			<stop  offset="0.7189" style="stop-color:#626466"/>
			<stop  offset="0.7341" style="stop-color:#6C6E70"/>
			<stop  offset="0.7468" style="stop-color:#67696B"/>
			<stop  offset="0.7619" style="stop-color:#5A5B5D"/>
			<stop  offset="0.7781" style="stop-color:#434445"/>
			<stop  offset="0.7951" style="stop-color:#232424"/>
			<stop  offset="0.8" style="stop-color:#191919"/>
			<stop  offset="0.8011" style="stop-color:#202020"/>
			<stop  offset="0.8066" style="stop-color:#3E3F40"/>
			<stop  offset="0.8125" style="stop-color:#58595B"/>
			<stop  offset="0.819" style="stop-color:#6B6C6F"/>
			<stop  offset="0.8263" style="stop-color:#797A7D"/>
			<stop  offset="0.8352" style="stop-color:#818385"/>
			<stop  offset="0.85" style="stop-color:#838588"/>
			<stop  offset="0.92" style="stop-color:#F3F3F3"/>
			<stop  offset="1" style="stop-color:#C9CBCD"/>
		</linearGradient>
		<ellipse fill="url(#SVGID_2_)" cx="30.1" cy="30" rx="29.4" ry="29.3"/>
		<g>
			<linearGradient id="SVGID_3_" gradientUnits="userSpaceOnUse" x1="30.1058" y1="4.3739" x2="30.1058" y2="55.5743">
				<stop  offset="0" style="stop-color:#AEB4B7"/>
				<stop  offset="1" style="stop-color:#FAFFFF"/>
			</linearGradient>
			<ellipse fill="url(#SVGID_3_)" cx="30.1" cy="30" rx="25.7" ry="25.6"/>
			<linearGradient id="SVGID_4_" gradientUnits="userSpaceOnUse" x1="30.1058" y1="6.2357" x2="30.1058" y2="53.712">
				<stop  offset="0" style="stop-color:#240205"/>
				<stop  offset="0.5901" style="stop-color:#250408"/>
				<stop  offset="0.9446" style="stop-color:#270C10"/>
				<stop  offset="1" style="stop-color:#280E12"/>
			</linearGradient>
			<path fill="url(#SVGID_4_)" d="M53.9,30c0,13.1-10.7,23.7-23.8,23.7C17,53.7,6.3,43.1,6.3,30C6.3,16.9,17,6.2,30.1,6.2
				C43.2,6.2,53.9,16.9,53.9,30z"/>
		</g>
	</g>
	<g>
		<g>
			
				<radialGradient id="SVGID_5_" cx="28.5395" cy="32.4363" r="25.4997" gradientTransform="matrix(0.9147 0 0 0.9127 4.0009 0.9379)" gradientUnits="userSpaceOnUse">
				<stop  offset="0" style="stop-color:#FCE074"/>
				<stop  offset="2.147937e-002" style="stop-color:#F5CE6B"/>
				<stop  offset="7.252675e-002" style="stop-color:#E6AA58"/>
				<stop  offset="0.1299" style="stop-color:#D98A48"/>
				<stop  offset="0.1933" style="stop-color:#CD6E3A"/>
				<stop  offset="0.2649" style="stop-color:#C4582E"/>
				<stop  offset="0.3486" style="stop-color:#BD4726"/>
				<stop  offset="0.4521" style="stop-color:#B93C1F"/>
				<stop  offset="0.5972" style="stop-color:#B6351C"/>
				<stop  offset="1" style="stop-color:#B5331B"/>
			</radialGradient>
			<path fill="url(#SVGID_5_)" d="M53.4,30.5c0,12.9-10.4,23.3-23.3,23.3c-12.9,0-23.3-10.4-23.3-23.3c0-12.9,10.4-23.3,23.3-23.3
				C43,7.3,53.4,17.7,53.4,30.5z"/>
			<g>
				
					<radialGradient id="SVGID_6_" cx="36.3139" cy="32.9438" r="22.752" gradientTransform="matrix(0.9744 0 0 0.9276 -5.2786 0.9543)" gradientUnits="userSpaceOnUse">
					<stop  offset="0.5" style="stop-color:#FCE074"/>
					<stop  offset="1" style="stop-color:#B5331B"/>
				</radialGradient>
				<path fill="url(#SVGID_6_)" d="M52,31.5c0,11.8-9.8,21.3-21.9,21.3C18,52.8,8.2,43.3,8.2,31.5c0-11.8,9.8-21.3,21.9-21.3
					C42.2,10.2,52,19.7,52,31.5z"/>
				<g>
					<linearGradient id="SVGID_7_" gradientUnits="userSpaceOnUse" x1="30.1249" y1="37.0875" x2="30.1249" y2="10.5111">
						<stop  offset="0" style="stop-color:#F9E788;stop-opacity:0.8"/>
						<stop  offset="0.1608" style="stop-color:#FAE991;stop-opacity:0.8322"/>
						<stop  offset="0.4229" style="stop-color:#FBEEA9;stop-opacity:0.8846"/>
						<stop  offset="0.7518" style="stop-color:#FDF6D1;stop-opacity:0.9504"/>
						<stop  offset="1" style="stop-color:#FFFDF3"/>
					</linearGradient>
					<ellipse fill="url(#SVGID_7_)" cx="30.1" cy="23.8" rx="15.5" ry="13.3"/>
					<ellipse fill="#FDFEF7" cx="40" cy="28.8" rx="3.7" ry="3.8"/>
				</g>
			</g>
		</g>
		<g>
			
				<linearGradient id="SVGID_8_" gradientUnits="userSpaceOnUse" x1="47.9776" y1="45.944" x2="53.4323" y2="45.944" gradientTransform="matrix(0.9975 7.080000e-002 -7.080000e-002 0.9975 1.764 -11.1865)">
				<stop  offset="0" style="stop-color:#FCE074;stop-opacity:0"/>
				<stop  offset="0.6" style="stop-color:#FCE074"/>
				<stop  offset="1" style="stop-color:#FC8724"/>
			</linearGradient>
			<path fill="url(#SVGID_8_)" d="M48.2,42.7c2.5-3,3.9-8.8,3.9-8.8s-1,2.8-3.6,6c-0.8,0.9-1.6,1.7-2.4,2.3L48.2,42.7z"/>
			
				<linearGradient id="SVGID_9_" gradientUnits="userSpaceOnUse" x1="37.7549" y1="53.8287" x2="49.5378" y2="53.8287" gradientTransform="matrix(0.9975 7.080000e-002 -7.080000e-002 0.9975 1.764 -11.1865)">
				<stop  offset="0" style="stop-color:#FCE074;stop-opacity:0"/>
				<stop  offset="0.6" style="stop-color:#FCE074"/>
				<stop  offset="1" style="stop-color:#FC8724"/>
			</linearGradient>
			<path fill="url(#SVGID_9_)" d="M45.2,42.9c-4.3,2.9-8.9,3-9.5,3.5c-1.6,1.2,4.6,2.2,4.6,2.2s3.2-1.1,7.2-5L45.2,42.9z"/>
			<linearGradient id="SVGID_10_" gradientUnits="userSpaceOnUse" x1="11.8443" y1="30.9948" x2="11.8443" y2="15.333">
				<stop  offset="0" style="stop-color:#FFFFFF"/>
				<stop  offset="0.3841" style="stop-color:#FCE074"/>
				<stop  offset="1" style="stop-color:#FC8724"/>
			</linearGradient>
			<path fill="url(#SVGID_10_)" d="M10.9,29.1L8.1,31c0,0,0.9-6.9,1.8-8.9c1.7-3.5,5.6-6.8,5.6-6.8s-3.7,3.8-4.6,8.7
				C10.7,25.3,10.9,29.1,10.9,29.1z"/>
			<linearGradient id="SVGID_11_" gradientUnits="userSpaceOnUse" x1="52.2568" y1="45.6923" x2="7.9383" y2="45.6923">
				<stop  offset="0" style="stop-color:#FFFFFF"/>
				<stop  offset="0.3841" style="stop-color:#FCE074"/>
				<stop  offset="1" style="stop-color:#FC8724"/>
			</linearGradient>
			<path fill="url(#SVGID_11_)" d="M30.1,52c-16.6,0-22.2-14.2-22.2-14.2s4.4,15.7,22.2,15.7c17.1,0,22.1-15.6,22.1-15.6
				S45.6,52,30.1,52z"/>
		</g>
	</g>
</g>
</svg>
