<?xml version="1.0" encoding="utf-8"?>
<!-- Generator: Adobe Illustrator 17.1.0, SVG Export Plug-In . SVG Version: 6.00 Build 0)  -->
<!DOCTYPE svg PUBLIC "-//W3C//DTD SVG 1.1//EN" "http://www.w3.org/Graphics/SVG/1.1/DTD/svg11.dtd">
<svg version="1.1" id="Capa_1" xmlns="http://www.w3.org/2000/svg" xmlns:xlink="http://www.w3.org/1999/xlink" x="0px" y="0px"
	 viewBox="0 0 250 250" enable-background="new 0 0 250 250" xml:space="preserve">
<g>
	<g>
		<defs>
			<path id="SVGID_3_" d="M124.3,41.1c0,0-49-85.1-111.3-10.9c0,0-31.7,56.6,4.4,105.5C58.2,191,124.7,249.9,124.7,249.9
				s94.6-87.3,108-115.2c18.2-37.8,29.7-83.4-14.2-120.9c-10.4-8.9-5-4-5-4s-22.9-22.9-62.2,2.8C151.3,12.5,139.3,16.8,124.3,41.1z"
				/>
		</defs>
		<clipPath id="SVGID_1_">
			<use xlink:href="#SVGID_3_"  overflow="visible"/>
		</clipPath>
		<g clip-path="url(#SVGID_1_)">
			<polyline fill="#DF2259" points="126.3,45.5 158.5,65.8 141.7,4.7 123.1,43.1 			"/>
			<polygon fill="#EE5294" points="141.7,4.7 173.8,-14.4 186,13.6 			"/>
			<polyline fill="#B2345B" points="142.7,4.5 186.4,13.6 158.1,65.5 141.7,4.7 			"/>
			<polygon fill="#CC3171" points="159,66.1 162.7,112.4 123.3,42.1 			"/>
			<polygon fill="#ED3E74" points="162.7,112.4 217.5,68.2 158.1,65.5 			"/>
			<polygon fill="#AD305E" points="158.1,65.5 187.1,45.7 217.1,68.3 			"/>
			<polygon fill="#D14377" points="186.4,13.6 187.8,46.4 158.1,65.5 			"/>
			<polygon fill="#ED3E74" points="173.8,-14.4 200.7,-18.5 186,13.6 			"/>
			<polyline fill="#991B41" points="201.7,-18.5 226.9,-3.3 186,13.6 200.7,-18.5 			"/>
			<polygon fill="#D52758" points="226.9,-3.3 225.2,45.1 186,13.6 			"/>
			<polygon fill="#AC1D45" points="186.4,13.6 225.7,45.3 217.1,68.3 			"/>
			<polygon fill="#CC3766" points="186.4,13.6 187.1,45.9 217.3,68.8 			"/>
			<polygon fill="#881840" points="225.7,45.3 253.2,93.8 257.6,62.2 			"/>
			<polygon fill="#CF3E73" points="225.2,45.1 257.6,62.2 254.2,34 			"/>
			<polygon fill="#C02457" points="226.9,-3.3 254.2,34 225,45.5 			"/>
			<polygon fill="#962F5A" points="225.7,45.3 217.1,68.3 253.2,93.8 			"/>
			<polygon fill="#B23662" points="217.1,68.3 215.7,108.9 253.2,93.8 			"/>
			<polyline fill="#962A4C" points="216.1,69.7 182.7,127.9 216.5,109.1 217.1,68.3 			"/>
			<polygon fill="#CC3766" points="217.1,68.3 161.9,113.2 182.7,127.9 			"/>
			<polygon fill="#CC3766" points="160,110.1 160.1,170.3 182.9,160.1 			"/>
			<polygon fill="#B23065" points="182.9,160.1 183.2,127.5 179.3,125 160,110.1 			"/>
			<polygon fill="#9D1D50" points="183.2,127.5 182.9,160.1 210.7,166.8 			"/>
			<polygon fill="#B73765" points="183.2,127.5 216.1,109 210.7,166.8 			"/>
			<polygon fill="#962F5A" points="215.3,108.5 253.2,93.8 238.8,126.4 			"/>
			<polygon fill="#962A4C" points="216.2,108.5 238.8,126.4 210.7,166.8 			"/>
			<polyline fill="#881840" points="182.9,160.1 210.7,166.8 179.6,198.7 183.2,161.3 179.6,198.7 160.8,169.9 			"/>
			<polygon fill="#B23662" points="161,169.6 140.4,202.4 179.6,198.7 			"/>
			<polyline fill="#962F5A" points="140.2,201.5 152.5,224.6 180,198.6 141.7,201.5 			"/>
			<polygon fill="#962A4C" points="100.4,208.5 122.4,251.4 152.5,224.6 			"/>
			<polygon fill="#881840" points="99.6,208.5 140.2,201.5 152.5,224.6 			"/>
			<polygon fill="#BA245C" points="100.4,208.5 131.9,163.2 140.7,201.5 			"/>
			<polygon fill="#CC3171" points="131.2,162.9 161,169.6 140.7,201.9 			"/>
			<polygon fill="#D52758" points="130.9,163.3 160,110.1 160.5,169.8 			"/>
			<polyline fill="#B73765" points="80.9,209.6 100.4,208.5 122.7,251.4 74.9,210.4 			"/>
			<polygon fill="#AC1D45" points="83.2,182.7 75.6,210.7 100.4,208.5 			"/>
			<polygon fill="#CC3766" points="83.3,183.7 131.9,163.2 100.4,208.5 			"/>
			<polygon fill="#962F5A" points="58.9,193.9 83,183.8 75.6,211 			"/>
			<polygon fill="#B23065" points="62.5,150 58.9,193.9 83.3,183.7 			"/>
			<polygon fill="#F75791" points="58.6,112.1 83.3,183.7 62.5,150 			"/>
			<polygon fill="#ED3E74" points="58.6,112.1 104.3,138.1 83.3,183.7 			"/>
			<polygon fill="#962F5A" points="104.3,137.3 131.9,163.2 83.3,183.7 			"/>
			<polygon fill="#ED3E74" points="103.9,137.7 120.9,82.7 131.2,162.9 			"/>
			<polygon fill="#CF3E73" points="120.9,83.3 160,110.1 131.1,163.8 			"/>
			<polygon fill="#C8235A" points="122.5,39.1 120.9,83.3 162.7,112.4 			"/>
			<polygon fill="#B2345B" points="58.8,111.5 29,158.4 62.5,150 			"/>
			<polygon fill="#962A4C" points="29,158.4 62.7,149.5 58.9,193.9 			"/>
			<polygon fill="#CF3E73" points="28.3,118.3 58.6,112.1 29,158.4 			"/>
			<polygon fill="#B23662" points="30.3,88.3 29.2,118.9 58.6,112.1 			"/>
			<polyline fill="#D14377" points="50.7,73 92.8,75.4 58.6,112.6 29.8,87.9 50.7,73 58.1,111.2 			"/>
			<polygon fill="#CC3766" points="92.8,75.4 98.9,106.9 58.6,112.6 			"/>
			<polyline fill="#DF2259" points="98.9,106.9 59.3,112.5 103.9,137.7 99.8,110.9 			"/>
			<polygon fill="#CC3766" points="98.9,106.9 120.9,82.7 103.9,137.7 			"/>
			<polygon fill="#881840" points="29.2,118 29,158.4 -0.9,109.2 			"/>
			<polygon fill="#962F5A" points="29.7,118.3 -8.6,72.4 -0.9,109.2 			"/>
			<polygon fill="#C02457" points="-8.6,73 24.4,35.3 30.7,88.5 			"/>
			<polygon fill="#EE5294" points="-8.1,73 30.6,87.8 29.2,118 			"/>
			<polygon fill="#AC1D45" points="24.6,36 49.9,73.5 30.6,87.8 			"/>
			<polygon fill="#962A4C" points="24.4,35.3 -3.7,25.7 -8.6,73 			"/>
			<polygon fill="#C02457" points="-3.7,25.7 18.8,-5.2 24.4,35.3 			"/>
			<polygon fill="#EE5294" points="18.8,-5.2 55.2,-18 24.6,36 			"/>
			<path fill="none" stroke="#FFFFFF" stroke-width="0.25" stroke-miterlimit="10" d="M25.7,36.7"/>
			<polygon fill="#C02457" points="55.2,-18 74.5,-13.8 59.6,22.6 			"/>
			<polyline fill="#F290BB" points="24.6,36 55.2,-18 59.6,22.6 25.7,36.7 			"/>
			<polygon fill="#DB3E78" points="74.5,-13.8 101.6,2.8 59.6,22.6 			"/>
			<polygon fill="#AC1D45" points="101.6,2.8 123.4,41 87.5,41.3 			"/>
			<polygon fill="#C02457" points="59.6,22.6 101.6,2.8 87.5,41.3 			"/>
			<polygon fill="#CC3766" points="24.4,36.5 59.6,22.6 49.9,73.5 			"/>
			<polygon fill="#D14377" points="59.6,22.6 87.5,41.3 49.9,73.5 			"/>
			<polygon fill="#CC3171" points="87.5,41.3 123.3,40.8 121.3,83.4 			"/>
			<polyline fill="#EE5294" points="87.6,44.8 93.1,77.4 120.9,82.7 87.5,41.3 			"/>
			<path fill="none" stroke="#FFFFFF" stroke-width="0.25" stroke-miterlimit="10" d="M86.8,45.3"/>
			<polygon fill="#B23662" points="92.9,76.6 120.9,82.7 98.9,106.9 			"/>
			<polyline fill="#CC3766" points="55,69.3 87.5,41.3 93.1,76.9 50.7,73 			"/>
		</g>
	</g>
</g>
</svg>
